<?xml version="1.0" encoding="UTF-8"?>
<!DOCTYPE svg PUBLIC "-//W3C//DTD SVG 1.1//EN" "http://www.w3.org/Graphics/SVG/1.1/DTD/svg11.dtd">
<svg xmlns="http://www.w3.org/2000/svg" xmlns:xlink="http://www.w3.org/1999/xlink" version="1.1" width="781px" height="591px" viewBox="-0.5 -0.5 781 591" style="background-color: rgb(255, 255, 255);"><defs><clipPath id="mx-clip-20-220-30-30-0"><rect x="20" y="220" width="30" height="30"/></clipPath><clipPath id="mx-clip-56-220-283-30-0"><rect x="56" y="220" width="283" height="30"/></clipPath><clipPath id="mx-clip-56-250-283-30-0"><rect x="56" y="250" width="283" height="30"/></clipPath><clipPath id="mx-clip-56-280-283-30-0"><rect x="56" y="280" width="283" height="30"/></clipPath><clipPath id="mx-clip-56-310-283-30-0"><rect x="56" y="310" width="283" height="30"/></clipPath><clipPath id="mx-clip-56-340-283-30-0"><rect x="56" y="340" width="283" height="30"/></clipPath><clipPath id="mx-clip-56-370-283-30-0"><rect x="56" y="370" width="283" height="30"/></clipPath><clipPath id="mx-clip-56-400-283-30-0"><rect x="56" y="400" width="283" height="30"/></clipPath><clipPath id="mx-clip-56-430-283-30-0"><rect x="56" y="430" width="283" height="30"/></clipPath><clipPath id="mx-clip-56-460-283-30-0"><rect x="56" y="460" width="283" height="30"/></clipPath><clipPath id="mx-clip-510-500-35-30-0"><rect x="510" y="500" width="35" height="30"/></clipPath><clipPath id="mx-clip-551-500-209-30-0"><rect x="551" y="500" width="209" height="30"/></clipPath><clipPath id="mx-clip-551-530-209-30-0"><rect x="551" y="530" width="209" height="30"/></clipPath><clipPath id="mx-clip-510-230-30-30-0"><rect x="510" y="230" width="30" height="30"/></clipPath><clipPath id="mx-clip-546-230-214-30-0"><rect x="546" y="230" width="214" height="30"/></clipPath><clipPath id="mx-clip-510-260-30-30-0"><rect x="510" y="260" width="30" height="30"/></clipPath><clipPath id="mx-clip-546-260-214-30-0"><rect x="546" y="260" width="214" height="30"/></clipPath><clipPath id="mx-clip-510-290-30-30-0"><rect x="510" y="290" width="30" height="30"/></clipPath><clipPath id="mx-clip-546-290-214-30-0"><rect x="546" y="290" width="214" height="30"/></clipPath><clipPath id="mx-clip-546-320-214-30-0"><rect x="546" y="320" width="214" height="30"/></clipPath><clipPath id="mx-clip-546-350-214-30-0"><rect x="546" y="350" width="214" height="30"/></clipPath><clipPath id="mx-clip-546-380-214-30-0"><rect x="546" y="380" width="214" height="30"/></clipPath><clipPath id="mx-clip-546-410-214-30-0"><rect x="546" y="410" width="214" height="30"/></clipPath><clipPath id="mx-clip-510-50-35-30-0"><rect x="510" y="50" width="35" height="30"/></clipPath><clipPath id="mx-clip-551-50-209-30-0"><rect x="551" y="50" width="209" height="30"/></clipPath><clipPath id="mx-clip-510-80-35-30-0"><rect x="510" y="80" width="35" height="30"/></clipPath><clipPath id="mx-clip-551-80-209-30-0"><rect x="551" y="80" width="209" height="30"/></clipPath><clipPath id="mx-clip-551-110-209-30-0"><rect x="551" y="110" width="209" height="30"/></clipPath><clipPath id="mx-clip-551-140-209-30-0"><rect x="551" y="140" width="209" height="30"/></clipPath><style type="text/css">@import url(https://fonts.googleapis.com/css?family=Permanent+Marker);&#xa;</style></defs><g><path d="M 339 235 L 359 235 Q 369 235 378.41 238.39 L 470.59 271.61 Q 480 275 490 275 L 510 275" fill="none" stroke="rgb(0, 0, 0)" stroke-miterlimit="10" pointer-events="stroke"/><path d="M 343 231 L 343 239" fill="none" stroke="rgb(0, 0, 0)" stroke-miterlimit="10" pointer-events="all"/><ellipse cx="498" cy="275" rx="3" ry="3" fill="#ffffff" stroke="rgb(0, 0, 0)" pointer-events="all"/><path d="M 510 271 L 502 275 L 510 279" fill="none" stroke="rgb(0, 0, 0)" stroke-miterlimit="10" pointer-events="all"/><path d="M 339 235 L 359 235 Q 369 235 372.69 244.3 L 476.31 505.7 Q 480 515 490 515 L 510 515" fill="none" stroke="rgb(0, 0, 0)" stroke-miterlimit="10" pointer-events="stroke"/><path d="M 343 231 L 343 239" fill="none" stroke="rgb(0, 0, 0)" stroke-miterlimit="10" pointer-events="all"/><ellipse cx="498" cy="515" rx="3" ry="3" fill="#ffffff" stroke="rgb(0, 0, 0)" pointer-events="all"/><path d="M 510 511 L 502 515 L 510 519" fill="none" stroke="rgb(0, 0, 0)" stroke-miterlimit="10" pointer-events="all"/><path d="M 20 220 L 20 190 L 339 190 L 339 220" fill="rgb(255, 255, 255)" stroke="rgb(0, 0, 0)" stroke-miterlimit="10" pointer-events="all"/><path d="M 20 220 L 20 500 L 339 500 L 339 220" fill="none" stroke="rgb(0, 0, 0)" stroke-miterlimit="10" pointer-events="none"/><path d="M 20 220 L 339 220" fill="none" stroke="rgb(0, 0, 0)" stroke-miterlimit="10" pointer-events="none"/><path d="M 50 220 L 50 250 L 50 280 L 50 310 L 50 340 L 50 370 L 50 400 L 50 430 L 50 460 L 50 490" fill="none" stroke="rgb(0, 0, 0)" stroke-miterlimit="10" pointer-events="none"/><g fill="rgb(0, 0, 0)" font-family="Helvetica" font-weight="bold" text-anchor="middle" font-size="12px"><text x="179" y="209.5">User</text></g><path d="M 20 220 M 339 220 M 339 250 L 20 250" fill="none" stroke="rgb(0, 0, 0)" stroke-linecap="square" stroke-miterlimit="10" pointer-events="none"/><rect x="20" y="220" width="30" height="30" fill="none" stroke="none" pointer-events="all"/><path d="M 20 220 M 50 220 M 50 250 M 20 250" fill="none" stroke="rgb(0, 0, 0)" stroke-linecap="square" stroke-miterlimit="10" pointer-events="all"/><g fill="rgb(0, 0, 0)" font-family="Helvetica" font-weight="bold" clip-path="url(#mx-clip-20-220-30-30-0)" text-anchor="middle" font-size="12px"><text x="34.5" y="239.5">PK</text></g><rect x="50" y="220" width="289" height="30" fill="none" stroke="none" pointer-events="all"/><path d="M 50 220 M 339 220 M 339 250 M 50 250" fill="none" stroke="rgb(0, 0, 0)" stroke-linecap="square" stroke-miterlimit="10" pointer-events="all"/><g fill="rgb(0, 0, 0)" font-family="Helvetica" font-weight="bold" text-decoration="underline" clip-path="url(#mx-clip-56-220-283-30-0)" font-size="12px"><text x="57.5" y="239.5">id serial NOT NULL </text></g><path d="M 20 250 M 339 250 M 339 280 M 20 280" fill="none" stroke="rgb(0, 0, 0)" stroke-linecap="square" stroke-miterlimit="10" pointer-events="none"/><rect x="20" y="250" width="30" height="30" fill="none" stroke="none" pointer-events="all"/><path d="M 20 250 M 50 250 M 50 280 M 20 280" fill="none" stroke="rgb(0, 0, 0)" stroke-linecap="square" stroke-miterlimit="10" pointer-events="all"/><rect x="50" y="250" width="289" height="30" fill="none" stroke="none" pointer-events="all"/><path d="M 50 250 M 339 250 M 339 280 M 50 280" fill="none" stroke="rgb(0, 0, 0)" stroke-linecap="square" stroke-miterlimit="10" pointer-events="all"/><g fill="rgb(0, 0, 0)" font-family="Helvetica" clip-path="url(#mx-clip-56-250-283-30-0)" font-size="12px"><text x="57.5" y="269.5">name char(64) UNIQUE NOT NULL</text></g><path d="M 20 280 M 339 280 M 339 310 M 20 310" fill="none" stroke="rgb(0, 0, 0)" stroke-linecap="square" stroke-miterlimit="10" pointer-events="none"/><rect x="20" y="280" width="30" height="30" fill="none" stroke="none" pointer-events="all"/><path d="M 20 280 M 50 280 M 50 310 M 20 310" fill="none" stroke="rgb(0, 0, 0)" stroke-linecap="square" stroke-miterlimit="10" pointer-events="all"/><rect x="50" y="280" width="289" height="30" fill="none" stroke="none" pointer-events="all"/><path d="M 50 280 M 339 280 M 339 310 M 50 310" fill="none" stroke="rgb(0, 0, 0)" stroke-linecap="square" stroke-miterlimit="10" pointer-events="all"/><g fill="rgb(0, 0, 0)" font-family="Helvetica" clip-path="url(#mx-clip-56-280-283-30-0)" font-size="12px"><text x="57.5" y="299.5">password_hash varchar(60) NOT NULL</text></g><path d="M 20 310 M 339 310 M 339 340 M 20 340" fill="none" stroke="rgb(0, 0, 0)" stroke-linecap="square" stroke-miterlimit="10" pointer-events="none"/><rect x="20" y="310" width="30" height="30" fill="none" stroke="none" pointer-events="all"/><path d="M 20 310 M 50 310 M 50 340 M 20 340" fill="none" stroke="rgb(0, 0, 0)" stroke-linecap="square" stroke-miterlimit="10" pointer-events="all"/><rect x="50" y="310" width="289" height="30" fill="none" stroke="none" pointer-events="all"/><path d="M 50 310 M 339 310 M 339 340 M 50 340" fill="none" stroke="rgb(0, 0, 0)" stroke-linecap="square" stroke-miterlimit="10" pointer-events="all"/><g fill="rgb(0, 0, 0)" font-family="Helvetica" clip-path="url(#mx-clip-56-310-283-30-0)" font-size="12px"><text x="57.5" y="329.5">email varchar(64) UNIQUE NOT NULL</text></g><path d="M 20 340 M 339 340 M 339 370 M 20 370" fill="none" stroke="rgb(0, 0, 0)" stroke-linecap="square" stroke-miterlimit="10" pointer-events="none"/><rect x="20" y="340" width="30" height="30" fill="none" stroke="none" pointer-events="all"/><path d="M 20 340 M 50 340 M 50 370 M 20 370" fill="none" stroke="rgb(0, 0, 0)" stroke-linecap="square" stroke-miterlimit="10" pointer-events="all"/><rect x="50" y="340" width="289" height="30" fill="none" stroke="none" pointer-events="all"/><path d="M 50 340 M 339 340 M 339 370 M 50 370" fill="none" stroke="rgb(0, 0, 0)" stroke-linecap="square" stroke-miterlimit="10" pointer-events="all"/><g fill="rgb(0, 0, 0)" font-family="Helvetica" clip-path="url(#mx-clip-56-340-283-30-0)" font-size="12px"><text x="57.5" y="359.5">rating int DEFAULT 600</text></g><path d="M 20 370 M 339 370 M 339 400 M 20 400" fill="none" stroke="rgb(0, 0, 0)" stroke-linecap="square" stroke-miterlimit="10" pointer-events="none"/><rect x="20" y="370" width="30" height="30" fill="none" stroke="none" pointer-events="all"/><path d="M 20 370 M 50 370 M 50 400 M 20 400" fill="none" stroke="rgb(0, 0, 0)" stroke-linecap="square" stroke-miterlimit="10" pointer-events="all"/><rect x="50" y="370" width="289" height="30" fill="none" stroke="none" pointer-events="all"/><path d="M 50 370 M 339 370 M 339 400 M 50 400" fill="none" stroke="rgb(0, 0, 0)" stroke-linecap="square" stroke-miterlimit="10" pointer-events="all"/><g fill="rgb(0, 0, 0)" font-family="Helvetica" clip-path="url(#mx-clip-56-370-283-30-0)" font-size="12px"><text x="57.5" y="389.5">games_played int DEFAULT 0</text></g><path d="M 20 400 M 339 400 M 339 430 M 20 430" fill="none" stroke="rgb(0, 0, 0)" stroke-linecap="square" stroke-miterlimit="10" pointer-events="none"/><rect x="20" y="400" width="30" height="30" fill="none" stroke="none" pointer-events="all"/><path d="M 20 400 M 50 400 M 50 430 M 20 430" fill="none" stroke="rgb(0, 0, 0)" stroke-linecap="square" stroke-miterlimit="10" pointer-events="all"/><rect x="50" y="400" width="289" height="30" fill="none" stroke="none" pointer-events="all"/><path d="M 50 400 M 339 400 M 339 430 M 50 430" fill="none" stroke="rgb(0, 0, 0)" stroke-linecap="square" stroke-miterlimit="10" pointer-events="all"/><g fill="rgb(0, 0, 0)" font-family="Helvetica" clip-path="url(#mx-clip-56-400-283-30-0)" font-size="12px"><text x="57.5" y="419.5">wins int DEFAULT 0</text></g><path d="M 20 430 M 339 430 M 339 460 M 20 460" fill="none" stroke="rgb(0, 0, 0)" stroke-linecap="square" stroke-miterlimit="10" pointer-events="none"/><rect x="20" y="430" width="30" height="30" fill="none" stroke="none" pointer-events="all"/><path d="M 20 430 M 50 430 M 50 460 M 20 460" fill="none" stroke="rgb(0, 0, 0)" stroke-linecap="square" stroke-miterlimit="10" pointer-events="all"/><rect x="50" y="430" width="289" height="30" fill="none" stroke="none" pointer-events="all"/><path d="M 50 430 M 339 430 M 339 460 M 50 460" fill="none" stroke="rgb(0, 0, 0)" stroke-linecap="square" stroke-miterlimit="10" pointer-events="all"/><g fill="rgb(0, 0, 0)" font-family="Helvetica" clip-path="url(#mx-clip-56-430-283-30-0)" font-size="12px"><text x="57.5" y="449.5">draws int DEFAULT 0</text></g><path d="M 20 460 M 339 460 M 339 490 M 20 490" fill="none" stroke="rgb(0, 0, 0)" stroke-linecap="square" stroke-miterlimit="10" pointer-events="none"/><rect x="20" y="460" width="30" height="30" fill="none" stroke="none" pointer-events="all"/><path d="M 20 460 M 50 460 M 50 490 M 20 490" fill="none" stroke="rgb(0, 0, 0)" stroke-linecap="square" stroke-miterlimit="10" pointer-events="all"/><rect x="50" y="460" width="289" height="30" fill="none" stroke="none" pointer-events="all"/><path d="M 50 460 M 339 460 M 339 490 M 50 490" fill="none" stroke="rgb(0, 0, 0)" stroke-linecap="square" stroke-miterlimit="10" pointer-events="all"/><g fill="rgb(0, 0, 0)" font-family="Helvetica" clip-path="url(#mx-clip-56-460-283-30-0)" font-size="12px"><text x="57.5" y="479.5">losses int DEFAULT 0</text></g><path d="M 510 500 L 510 470 L 760 470 L 760 500" fill="rgb(255, 255, 255)" stroke="rgb(0, 0, 0)" stroke-miterlimit="10" pointer-events="all"/><path d="M 510 500 L 510 570 L 760 570 L 760 500" fill="none" stroke="rgb(0, 0, 0)" stroke-miterlimit="10" pointer-events="none"/><path d="M 510 500 L 760 500" fill="none" stroke="rgb(0, 0, 0)" stroke-miterlimit="10" pointer-events="none"/><path d="M 545 500 L 545 530 L 545 560" fill="none" stroke="rgb(0, 0, 0)" stroke-miterlimit="10" pointer-events="none"/><g fill="rgb(0, 0, 0)" font-family="Helvetica" font-weight="bold" text-anchor="middle" font-size="12px"><text x="634.5" y="489.5">Lobby</text></g><path d="M 510 500 M 760 500 M 760 530 M 510 530" fill="none" stroke="rgb(0, 0, 0)" stroke-linecap="square" stroke-miterlimit="10" pointer-events="none"/><rect x="510" y="500" width="35" height="30" fill="none" stroke="none" pointer-events="all"/><path d="M 510 500 M 545 500 M 545 530 M 510 530" fill="none" stroke="rgb(0, 0, 0)" stroke-linecap="square" stroke-miterlimit="10" pointer-events="all"/><g fill="rgb(0, 0, 0)" font-family="Helvetica" clip-path="url(#mx-clip-510-500-35-30-0)" text-anchor="middle" font-size="12px"><text x="527" y="519.5">FK1</text></g><rect x="545" y="500" width="215" height="30" fill="none" stroke="none" pointer-events="all"/><path d="M 545 500 M 760 500 M 760 530 M 545 530" fill="none" stroke="rgb(0, 0, 0)" stroke-linecap="square" stroke-miterlimit="10" pointer-events="all"/><g fill="rgb(0, 0, 0)" font-family="Helvetica" clip-path="url(#mx-clip-551-500-209-30-0)" font-size="12px"><text x="552.5" y="519.5">user_id int</text></g><path d="M 510 530 M 760 530 M 760 560 M 510 560" fill="none" stroke="rgb(0, 0, 0)" stroke-linecap="square" stroke-miterlimit="10" pointer-events="none"/><rect x="510" y="530" width="35" height="30" fill="none" stroke="none" pointer-events="all"/><path d="M 510 530 M 545 530 M 545 560 M 510 560" fill="none" stroke="rgb(0, 0, 0)" stroke-linecap="square" stroke-miterlimit="10" pointer-events="all"/><rect x="545" y="530" width="215" height="30" fill="none" stroke="none" pointer-events="all"/><path d="M 545 530 M 760 530 M 760 560 M 545 560" fill="none" stroke="rgb(0, 0, 0)" stroke-linecap="square" stroke-miterlimit="10" pointer-events="all"/><g fill="rgb(0, 0, 0)" font-family="Helvetica" clip-path="url(#mx-clip-551-530-209-30-0)" font-size="12px"><text x="552.5" y="549.5">config jsonb NOT NULL</text></g><path d="M 510 230 L 510 200 L 760 200 L 760 230" fill="rgb(255, 255, 255)" stroke="rgb(0, 0, 0)" stroke-miterlimit="10" pointer-events="all"/><path d="M 510 230 L 510 450 L 760 450 L 760 230" fill="none" stroke="rgb(0, 0, 0)" stroke-miterlimit="10" pointer-events="none"/><path d="M 510 230 L 760 230" fill="none" stroke="rgb(0, 0, 0)" stroke-miterlimit="10" pointer-events="none"/><path d="M 540 230 L 540 260 L 540 290 L 540 320 L 540 350 L 540 380 L 540 410 L 540 440" fill="none" stroke="rgb(0, 0, 0)" stroke-miterlimit="10" pointer-events="none"/><g fill="rgb(0, 0, 0)" font-family="Helvetica" font-weight="bold" text-anchor="middle" font-size="12px"><text x="634.5" y="219.5">Game</text></g><path d="M 510 230 M 760 230 M 760 260 L 510 260" fill="none" stroke="rgb(0, 0, 0)" stroke-linecap="square" stroke-miterlimit="10" pointer-events="none"/><rect x="510" y="230" width="30" height="30" fill="none" stroke="none" pointer-events="all"/><path d="M 510 230 M 540 230 M 540 260 M 510 260" fill="none" stroke="rgb(0, 0, 0)" stroke-linecap="square" stroke-miterlimit="10" pointer-events="all"/><g fill="rgb(0, 0, 0)" font-family="Helvetica" font-weight="bold" clip-path="url(#mx-clip-510-230-30-30-0)" text-anchor="middle" font-size="12px"><text x="524.5" y="249.5">PK</text></g><rect x="540" y="230" width="220" height="30" fill="none" stroke="none" pointer-events="all"/><path d="M 540 230 M 760 230 M 760 260 M 540 260" fill="none" stroke="rgb(0, 0, 0)" stroke-linecap="square" stroke-miterlimit="10" pointer-events="all"/><g fill="rgb(0, 0, 0)" font-family="Helvetica" font-weight="bold" text-decoration="underline" clip-path="url(#mx-clip-546-230-214-30-0)" font-size="12px"><text x="547.5" y="249.5">id serial NOT NULL</text></g><path d="M 510 260 M 760 260 M 760 290 M 510 290" fill="none" stroke="rgb(0, 0, 0)" stroke-linecap="square" stroke-miterlimit="10" pointer-events="none"/><rect x="510" y="260" width="30" height="30" fill="none" stroke="none" pointer-events="all"/><path d="M 510 260 M 540 260 M 540 290 M 510 290" fill="none" stroke="rgb(0, 0, 0)" stroke-linecap="square" stroke-miterlimit="10" pointer-events="all"/><g fill="rgb(0, 0, 0)" font-family="Helvetica" clip-path="url(#mx-clip-510-260-30-30-0)" text-anchor="middle" font-size="12px"><text x="524.5" y="279.5">FK1</text></g><rect x="540" y="260" width="220" height="30" fill="none" stroke="none" pointer-events="all"/><path d="M 540 260 M 760 260 M 760 290 M 540 290" fill="none" stroke="rgb(0, 0, 0)" stroke-linecap="square" stroke-miterlimit="10" pointer-events="all"/><g fill="rgb(0, 0, 0)" font-family="Helvetica" clip-path="url(#mx-clip-546-260-214-30-0)" font-size="12px"><text x="547.5" y="279.5">white_player int</text></g><path d="M 510 290 M 760 290 M 760 320 M 510 320" fill="none" stroke="rgb(0, 0, 0)" stroke-linecap="square" stroke-miterlimit="10" pointer-events="none"/><rect x="510" y="290" width="30" height="30" fill="none" stroke="none" pointer-events="all"/><path d="M 510 290 M 540 290 M 540 320 M 510 320" fill="none" stroke="rgb(0, 0, 0)" stroke-linecap="square" stroke-miterlimit="10" pointer-events="all"/><g fill="rgb(0, 0, 0)" font-family="Helvetica" clip-path="url(#mx-clip-510-290-30-30-0)" text-anchor="middle" font-size="12px"><text x="524.5" y="309.5">FK2</text></g><rect x="540" y="290" width="220" height="30" fill="none" stroke="none" pointer-events="all"/><path d="M 540 290 M 760 290 M 760 320 M 540 320" fill="none" stroke="rgb(0, 0, 0)" stroke-linecap="square" stroke-miterlimit="10" pointer-events="all"/><g fill="rgb(0, 0, 0)" font-family="Helvetica" clip-path="url(#mx-clip-546-290-214-30-0)" font-size="12px"><text x="547.5" y="309.5">black_player int</text></g><path d="M 510 320 M 760 320 M 760 350 M 510 350" fill="none" stroke="rgb(0, 0, 0)" stroke-linecap="square" stroke-miterlimit="10" pointer-events="none"/><rect x="510" y="320" width="30" height="30" fill="none" stroke="none" pointer-events="all"/><path d="M 510 320 M 540 320 M 540 350 M 510 350" fill="none" stroke="rgb(0, 0, 0)" stroke-linecap="square" stroke-miterlimit="10" pointer-events="all"/><rect x="540" y="320" width="220" height="30" fill="none" stroke="none" pointer-events="all"/><path d="M 540 320 M 760 320 M 760 350 M 540 350" fill="none" stroke="rgb(0, 0, 0)" stroke-linecap="square" stroke-miterlimit="10" pointer-events="all"/><g fill="rgb(0, 0, 0)" font-family="Helvetica" clip-path="url(#mx-clip-546-320-214-30-0)" font-size="12px"><text x="547.5" y="339.5">board jsnob NOT NULL</text></g><path d="M 510 350 M 760 350 M 760 380 M 510 380" fill="none" stroke="rgb(0, 0, 0)" stroke-linecap="square" stroke-miterlimit="10" pointer-events="none"/><rect x="510" y="350" width="30" height="30" fill="none" stroke="none" pointer-events="all"/><path d="M 510 350 M 540 350 M 540 380 M 510 380" fill="none" stroke="rgb(0, 0, 0)" stroke-linecap="square" stroke-miterlimit="10" pointer-events="all"/><rect x="540" y="350" width="220" height="30" fill="none" stroke="none" pointer-events="all"/><path d="M 540 350 M 760 350 M 760 380 M 540 380" fill="none" stroke="rgb(0, 0, 0)" stroke-linecap="square" stroke-miterlimit="10" pointer-events="all"/><g fill="rgb(0, 0, 0)" font-family="Helvetica" clip-path="url(#mx-clip-546-350-214-30-0)" font-size="12px"><text x="547.5" y="369.5">turn char(1) NOT NULL</text></g><path d="M 510 380 M 760 380 M 760 410 M 510 410" fill="none" stroke="rgb(0, 0, 0)" stroke-linecap="square" stroke-miterlimit="10" pointer-events="none"/><rect x="510" y="380" width="30" height="30" fill="none" stroke="none" pointer-events="all"/><path d="M 510 380 M 540 380 M 540 410 M 510 410" fill="none" stroke="rgb(0, 0, 0)" stroke-linecap="square" stroke-miterlimit="10" pointer-events="all"/><rect x="540" y="380" width="220" height="30" fill="none" stroke="none" pointer-events="all"/><path d="M 540 380 M 760 380 M 760 410 M 540 410" fill="none" stroke="rgb(0, 0, 0)" stroke-linecap="square" stroke-miterlimit="10" pointer-events="all"/><g fill="rgb(0, 0, 0)" font-family="Helvetica" clip-path="url(#mx-clip-546-380-214-30-0)" font-size="12px"><text x="547.5" y="399.5">state char(1) NOT NULL</text></g><path d="M 510 410 M 760 410 M 760 440 M 510 440" fill="none" stroke="rgb(0, 0, 0)" stroke-linecap="square" stroke-miterlimit="10" pointer-events="none"/><rect x="510" y="410" width="30" height="30" fill="none" stroke="none" pointer-events="all"/><path d="M 510 410 M 540 410 M 540 440 M 510 440" fill="none" stroke="rgb(0, 0, 0)" stroke-linecap="square" stroke-miterlimit="10" pointer-events="all"/><rect x="540" y="410" width="220" height="30" fill="none" stroke="none" pointer-events="all"/><path d="M 540 410 M 760 410 M 760 440 M 540 440" fill="none" stroke="rgb(0, 0, 0)" stroke-linecap="square" stroke-miterlimit="10" pointer-events="all"/><g fill="rgb(0, 0, 0)" font-family="Helvetica" clip-path="url(#mx-clip-546-410-214-30-0)" font-size="12px"><text x="547.5" y="429.5">config jsonb NOT NULL</text></g><path d="M 339 235 L 359 235 Q 369 235 377.46 240.33 L 471.54 299.67 Q 480 305 490 305 L 510 305" fill="none" stroke="rgb(0, 0, 0)" stroke-miterlimit="10" pointer-events="stroke"/><path d="M 343 231 L 343 239" fill="none" stroke="rgb(0, 0, 0)" stroke-miterlimit="10" pointer-events="all"/><ellipse cx="498" cy="305" rx="3" ry="3" fill="#ffffff" stroke="rgb(0, 0, 0)" pointer-events="all"/><path d="M 510 301 L 502 305 L 510 309" fill="none" stroke="rgb(0, 0, 0)" stroke-miterlimit="10" pointer-events="all"/><path d="M 510 50 L 510 20 L 760 20 L 760 50" fill="rgb(255, 255, 255)" stroke="rgb(0, 0, 0)" stroke-miterlimit="10" pointer-events="all"/><path d="M 510 50 L 510 180 L 760 180 L 760 50" fill="none" stroke="rgb(0, 0, 0)" stroke-miterlimit="10" pointer-events="none"/><path d="M 510 50 L 760 50" fill="none" stroke="rgb(0, 0, 0)" stroke-miterlimit="10" pointer-events="none"/><path d="M 545 50 L 545 80 L 545 110 L 545 140 L 545 170" fill="none" stroke="rgb(0, 0, 0)" stroke-miterlimit="10" pointer-events="none"/><g fill="rgb(0, 0, 0)" font-family="Helvetica" font-weight="bold" text-anchor="middle" font-size="12px"><text x="634.5" y="39.5">Token</text></g><path d="M 510 50 M 760 50 M 760 80 L 510 80" fill="none" stroke="rgb(0, 0, 0)" stroke-linecap="square" stroke-miterlimit="10" pointer-events="none"/><rect x="510" y="50" width="35" height="30" fill="none" stroke="none" pointer-events="all"/><path d="M 510 50 M 545 50 M 545 80 M 510 80" fill="none" stroke="rgb(0, 0, 0)" stroke-linecap="square" stroke-miterlimit="10" pointer-events="all"/><g fill="rgb(0, 0, 0)" font-family="Helvetica" font-weight="bold" clip-path="url(#mx-clip-510-50-35-30-0)" text-anchor="middle" font-size="12px"><text x="527" y="69.5">PK</text></g><rect x="545" y="50" width="215" height="30" fill="none" stroke="none" pointer-events="all"/><path d="M 545 50 M 760 50 M 760 80 M 545 80" fill="none" stroke="rgb(0, 0, 0)" stroke-linecap="square" stroke-miterlimit="10" pointer-events="all"/><g fill="rgb(0, 0, 0)" font-family="Helvetica" font-weight="bold" text-decoration="underline" clip-path="url(#mx-clip-551-50-209-30-0)" font-size="12px"><text x="552.5" y="69.5">token_hash varchar(256)</text></g><path d="M 510 80 M 760 80 M 760 110 M 510 110" fill="none" stroke="rgb(0, 0, 0)" stroke-linecap="square" stroke-miterlimit="10" pointer-events="none"/><rect x="510" y="80" width="35" height="30" fill="none" stroke="none" pointer-events="all"/><path d="M 510 80 M 545 80 M 545 110 M 510 110" fill="none" stroke="rgb(0, 0, 0)" stroke-linecap="square" stroke-miterlimit="10" pointer-events="all"/><g fill="rgb(0, 0, 0)" font-family="Helvetica" clip-path="url(#mx-clip-510-80-35-30-0)" text-anchor="middle" font-size="12px"><text x="527" y="99.5">FK1</text></g><rect x="545" y="80" width="215" height="30" fill="none" stroke="none" pointer-events="all"/><path d="M 545 80 M 760 80 M 760 110 M 545 110" fill="none" stroke="rgb(0, 0, 0)" stroke-linecap="square" stroke-miterlimit="10" pointer-events="all"/><g fill="rgb(0, 0, 0)" font-family="Helvetica" clip-path="url(#mx-clip-551-80-209-30-0)" font-size="12px"><text x="552.5" y="99.5">user_id int</text></g><path d="M 510 110 M 760 110 M 760 140 M 510 140" fill="none" stroke="rgb(0, 0, 0)" stroke-linecap="square" stroke-miterlimit="10" pointer-events="none"/><rect x="510" y="110" width="35" height="30" fill="none" stroke="none" pointer-events="all"/><path d="M 510 110 M 545 110 M 545 140 M 510 140" fill="none" stroke="rgb(0, 0, 0)" stroke-linecap="square" stroke-miterlimit="10" pointer-events="all"/><rect x="545" y="110" width="215" height="30" fill="none" stroke="none" pointer-events="all"/><path d="M 545 110 M 760 110 M 760 140 M 545 140" fill="none" stroke="rgb(0, 0, 0)" stroke-linecap="square" stroke-miterlimit="10" pointer-events="all"/><g fill="rgb(0, 0, 0)" font-family="Helvetica" clip-path="url(#mx-clip-551-110-209-30-0)" font-size="12px"><text x="552.5" y="129.5">created_at bigint NOT NULL</text></g><path d="M 510 140 M 760 140 M 760 170 M 510 170" fill="none" stroke="rgb(0, 0, 0)" stroke-linecap="square" stroke-miterlimit="10" pointer-events="none"/><rect x="510" y="140" width="35" height="30" fill="none" stroke="none" pointer-events="all"/><path d="M 510 140 M 545 140 M 545 170 M 510 170" fill="none" stroke="rgb(0, 0, 0)" stroke-linecap="square" stroke-miterlimit="10" pointer-events="all"/><rect x="545" y="140" width="215" height="30" fill="none" stroke="none" pointer-events="all"/><path d="M 545 140 M 760 140 M 760 170 M 545 170" fill="none" stroke="rgb(0, 0, 0)" stroke-linecap="square" stroke-miterlimit="10" pointer-events="all"/><g fill="rgb(0, 0, 0)" font-family="Helvetica" clip-path="url(#mx-clip-551-140-209-30-0)" font-size="12px"><text x="552.5" y="159.5">last_used_at bigint NOT NULL</text></g><path d="M 339 235 L 359 235 Q 369 235 375.21 227.16 L 473.79 102.84 Q 480 95 490 95 L 510 95" fill="none" stroke="rgb(0, 0, 0)" stroke-miterlimit="10" pointer-events="stroke"/><path d="M 343 231 L 343 239" fill="none" stroke="rgb(0, 0, 0)" stroke-miterlimit="10" pointer-events="all"/><ellipse cx="498" cy="95" rx="3" ry="3" fill="#ffffff" stroke="rgb(0, 0, 0)" pointer-events="all"/><path d="M 510 91 L 502 95 L 510 99" fill="none" stroke="rgb(0, 0, 0)" stroke-miterlimit="10" pointer-events="all"/></g></svg>